Patient4_TMGait_0pt5_02_right_40_GRF.mot
version=1
nRows=52
nColumns=19
inDegrees=no
endheader
time	F1x	F1y	F1z	M1x	M1y	M1z	F2x	F2y	F2z	M2x	M2y	M2z	EC1x	EC1y	EC1z	EC2x	EC2y	EC2z
52.27	14.4117	770.3908	76.3019	-271.401	-66.9863	748.2373	-25.9761	11.6025	-8.071	6.3255	6.7587	24.7456	-0.0592	0.0182	-0.0073	-0.0462	0.0165	0.9585
52.2828	9.6151	766.6233	71.9751	-270.0172	-64.1419	739.6481	-17.4719	8.5155	-5.4705	4.5815	4.5795	17.4043	-0.0592	0.0182	-0.0073	-0.0462	0.0165	0.9585
52.2956	5.8906	763.0751	68.0409	-268.7215	-61.2541	731.0718	-10.3186	5.9438	-3.2515	3.1033	2.7417	11.2306	-0.0592	0.0182	-0.0073	-0.0462	0.0165	0.9585
52.3084	3.4829	760.0752	64.6567	-267.6584	-58.4024	722.9795	-4.8809	4.0096	-1.558	1.979	1.3495	6.5373	-0.0592	0.0182	-0.0073	-0.0462	0.0165	0.9585
52.3211	2.36	757.865	61.8371	-266.9376	-55.6238	715.6349	-1.1516	2.7099	-0.38617	1.2104	0.3997	3.3267	-0.0592	0.0182	-0.0073	-0.0462	0.0165	0.9585
52.3339	2.3647	756.6279	59.4642	-266.643	-52.8756	709.1709	1.127	1.9284	0.33542	0.73908	-0.171	1.3539	-0.0592	0.0182	-0.0073	-0.0462	0.0165	0.9585
52.3467	3.32	756.4874	57.4118	-266.8289	-50.1104	703.6444	2.2906	1.5078	0.71107	0.48299	-0.44881	0.29324	-0.0592	0.0182	-0.0073	-0.0462	0.0165	0.9585
52.3595	5.0912	757.4518	55.5522	-267.5003	-47.257	698.9843	2.6468	1.2846	0.84336	0.35541	-0.50785	-0.18032	-0.0592	0.0182	-0.0073	-0.0462	0.0165	0.9585
52.3723	7.5426	759.3645	53.8181	-268.5889	-44.2933	694.9982	2.4973	1.0626	0.82494	0.2644	-0.42738	-0.42827	-0.0592	0.0182	-0.0073	-0.0462	0.0165	0.9585
52.3851	10.5794	761.883	52.1743	-269.9501	-41.2123	691.3655	2.0313	0.69127	0.73061	0.13059	-0.26358	-0.69505	-0.0592	0.0182	-0.0073	-0.0462	0.0165	0.9585
52.3979	14.0765	764.5288	50.6254	-271.381	-38.0581	687.7158	1.4448	-0.0095711	0.61348	-0.12679	-0.07287	-1.26	-0.0592	0.0182	-0.0073	-0.0462	0.0165	0.9585
52.4106	17.8493	766.728	49.1932	-272.6377	-34.9088	683.6382	0.82582	-1.1474	0.50611	-0.56269	0.11329	-2.2689	-0.0592	0.0182	-0.0073	-0.0462	0.0165	0.9585
52.4234	21.6844	767.8517	47.926	-273.4542	-31.8814	678.7116	0.30046	-2.8055	0.42801	-1.214	0.25142	-3.8549	-0.0592	0.0182	-0.0073	-0.0462	0.0165	0.9585
52.4362	25.3529	767.2849	46.8737	-273.5701	-29.0982	672.5629	-0.054103	-4.9378	0.38969	-2.0674	0.30443	-5.9696	-0.0592	0.0182	-0.0073	-0.0462	0.0165	0.9585
52.449	28.6908	764.4973	46.1023	-272.7635	-26.6823	664.8593	-0.11573	-7.3627	0.39589	-3.049	0.21892	-8.4277	-0.0592	0.0182	-0.0073	-0.0462	0.0165	0.9585
52.4618	31.5756	759.2184	45.6716	-270.9165	-24.7328	655.467	0.26736	-9.6643	0.452	-3.9878	-0.071097	-10.7887	-0.0592	0.0182	-0.0073	-0.0462	0.0165	0.9585
52.4746	34.0183	751.5426	45.6495	-268.0542	-23.3185	644.5029	1.2646	-11.0958	0.5565	-4.5797	-0.63109	-12.2518	-0.0592	0.0182	-0.0073	-0.0462	0.0165	0.9585
52.4874	36.0747	741.9139	46.0864	-264.3382	-22.4734	632.3518	3.0923	-10.5197	0.70373	-4.3581	-1.5356	-11.6248	-0.0592	0.0182	-0.0073	-0.0462	0.0165	0.9585
52.5001	37.8893	730.9601	46.9977	-260.0081	-22.1746	619.5008	5.9021	-6.3087	0.87536	-2.6642	-2.8261	-7.178	-0.0592	0.0182	-0.0073	-0.0462	0.0165	0.9585
52.5129	39.5925	719.27	48.3217	-255.2973	-22.328	606.4115	9.8136	3.5556	1.0405	1.3261	-4.5059	3.1989	-0.0592	0.0182	-0.0073	-0.0462	0.0165	0.9585
52.5257	41.3136	707.1365	49.9181	-250.3419	-22.7777	593.3006	14.7034	21.3728	1.1453	8.5475	-6.4615	21.9495	-0.0592	0.0182	-0.0073	-0.0462	0.0165	0.9585
52.5385	43.0797	694.353	51.5482	-245.1115	-23.3146	579.9835	20.1617	49.2891	1.1166	19.8786	-8.4338	51.3309	-0.0592	0.0182	-0.0073	-0.0462	0.0165	0.9585
52.5513	44.7855	680.1794	52.8969	-239.3903	-23.719	565.8742	25.2407	88.6799	0.85265	35.8794	-9.925	92.8057	-0.0592	0.0182	-0.0073	-0.0462	0.0165	0.9585
52.5641	46.2481	663.4338	53.6181	-232.8093	-23.7765	550.0192	28.3159	139.087	0.23254	56.3681	-10.1525	145.9151	-0.0592	0.0182	-0.0073	-0.0462	0.0165	0.9585
52.5769	47.1961	642.7984	53.4074	-224.9493	-23.3363	531.3926	27.183	197.07	-0.89381	79.9502	-8.0997	207.0802	-0.0592	0.0182	-0.0073	-0.0462	0.0165	0.9585
52.5896	47.4178	617.1963	52.0747	-215.4756	-22.3167	509.1029	20.802	256.2531	-2.8789	104.0011	-3.0141	269.679	-0.0592	0.0182	-0.0073	-0.0462	0.0165	0.9585
52.6024	46.7922	586.2796	49.6283	-204.292	-20.762	482.8309	11.1541	309.7177	-6.4751	125.6525	5.0181	326.3806	-0.0592	0.0182	-0.0073	-0.0462	0.0165	0.9585
52.6152	45.342	550.4082	46.3171	-191.5277	-18.8527	452.7724	0.69521	353.9036	-11.3378	143.4282	14.5972	373.2149	-0.0592	0.0182	-0.0073	-0.0462	0.0165	0.9585
52.628	43.1187	510.1741	42.5756	-177.3674	-16.9002	419.3353	-9.0949	389.3859	-17.0353	157.56	24.6478	410.5908	-0.0592	0.0182	-0.0073	-0.0462	0.0165	0.9585
52.6408	40.2182	466.1842	38.7634	-161.9889	-15.141	382.9657	-17.5041	418.8977	-22.5303	169.2142	33.8127	441.3231	-0.0592	0.0182	-0.0073	-0.0462	0.0165	0.9585
52.6536	36.7184	419.071	35.0356	-145.5862	-13.661	344.1548	-24.3808	445.4056	-27.2931	179.6484	41.4853	468.5359	-0.0592	0.0182	-0.0073	-0.0462	0.0165	0.9585
52.6664	32.623	369.6828	31.3519	-128.4318	-12.4149	303.6	-29.7298	471.4885	-30.9068	189.9485	47.2743	494.8871	-0.0592	0.0182	-0.0073	-0.0462	0.0165	0.9585
52.6791	27.9171	319.0991	27.6657	-110.8823	-11.3685	262.1611	-33.5467	499.1834	-33.7215	200.9268	51.5613	522.4489	-0.0592	0.0182	-0.0073	-0.0462	0.0165	0.9585
52.6919	22.5537	268.7187	23.9637	-93.3996	-10.5191	220.988	-35.9383	529.7333	-36.0904	213.0587	54.7836	552.4606	-0.0592	0.0182	-0.0073	-0.0462	0.0165	0.9585
52.7047	16.6276	220.107	20.3525	-76.5102	-9.9162	181.3128	-37.2508	563.3373	-38.6288	226.3795	57.7069	585.1625	-0.0592	0.0182	-0.0073	-0.0462	0.0165	0.9585
52.7175	10.3583	174.9258	16.9411	-60.7832	-9.5611	144.4745	-37.9223	599.3201	-41.6503	240.5889	60.83	619.8794	-0.0592	0.0182	-0.0073	-0.0462	0.0165	0.9585
52.7303	4.2253	134.5713	13.8455	-46.7127	-9.3788	111.5525	-38.3921	636.5275	-45.3788	255.203	64.5397	655.4828	-0.0592	0.0182	-0.0073	-0.0462	0.0165	0.9585
52.7431	-1.2074	99.9546	11.0988	-34.6315	-9.1946	83.2614	-38.866	673.6537	-49.5409	269.7162	68.6469	690.641	-0.0592	0.0182	-0.0073	-0.0462	0.0165	0.9585
52.7559	-5.4548	71.3262	8.7007	-24.6446	-8.8382	59.7856	-39.3853	709.3009	-53.8275	283.5966	72.8431	723.9452	-0.0592	0.0182	-0.0073	-0.0462	0.0165	0.9585
52.7686	-8.191	48.4349	6.6143	-16.6725	-8.1712	40.9227	-39.8283	741.9189	-57.7699	296.2668	76.6031	753.8184	-0.0592	0.0182	-0.0073	-0.0462	0.0165	0.9585
52.7814	-9.2949	30.7314	4.7992	-10.524	-7.1252	26.2652	-40.0568	769.8857	-61.0836	307.1087	79.582	778.6704	-0.0592	0.0182	-0.0073	-0.0462	0.0165	0.9585
52.7942	-8.8416	17.5613	3.2269	-5.9722	-5.7195	15.2811	-39.9518	791.7054	-63.5153	315.549	81.4882	797.0608	-0.0592	0.0182	-0.0073	-0.0462	0.0165	0.9585
52.807	-7.3015	8.3293	1.913	-2.8018	-4.1361	7.5142	-39.4182	806.3023	-65.03	321.1658	82.2592	807.9948	-0.0592	0.0182	-0.0073	-0.0462	0.0165	0.9585
52.8198	-5.3196	2.4592	0.91315	-0.80225	-2.6509	2.5046	-38.3882	813.2986	-65.5931	323.8144	81.8511	811.1769	-0.0592	0.0182	-0.0073	-0.0462	0.0165	0.9585
52.8326	-3.3922	-0.78157	0.23556	0.28754	-1.4439	-0.30128	-36.7913	813.1568	-65.2948	323.683	80.3444	807.1225	-0.0592	0.0182	-0.0073	-0.0462	0.0165	0.9585
52.8454	-1.7574	-2.1626	-0.17598	0.7367	-0.55459	-1.5354	-34.6003	807.2016	-64.2104	321.3007	77.8229	797.1687	-0.0592	0.0182	-0.0073	-0.0462	0.0165	0.9585
52.8581	-0.51592	-2.3572	-0.38111	0.77907	0.031154	-1.7494	-31.8251	797.2864	-62.5381	317.4036	74.5041	783.1369	-0.0592	0.0182	-0.0073	-0.0462	0.0165	0.9585
52.8709	0.33479	-1.8863	-0.44904	0.59336	0.374	-1.3767	-28.5564	785.4458	-60.4722	312.7955	70.6296	767.0197	-0.0592	0.0182	-0.0073	-0.0462	0.0165	0.9585
52.8837	0.85854	-1.1195	-0.42431	0.30737	0.53289	-0.73987	-24.9318	773.5683	-58.2694	308.2212	66.5162	750.654	-0.0592	0.0182	-0.0073	-0.0462	0.0165	0.9585
52.8965	1.117	-0.28236	-0.34968	0.00074741	0.56598	-0.022414	-21.124	763.2166	-56.1174	304.2987	62.4204	735.5542	-0.0592	0.0182	-0.0073	-0.0462	0.0165	0.9585
52.9093	1.2151	0.48495	-0.25377	-0.27826	0.53023	0.64109	-17.283	755.499	-54.1849	301.4638	58.5719	722.7869	-0.0592	0.0182	-0.0073	-0.0462	0.0165	0.9585
52.9221	1.1983	1.1388	-0.16176	-0.51115	0.46248	1.2341	-13.5354	751.0075	-52.5353	299.9499	55.0839	712.9179	-0.0592	0.0182	-0.0073	-0.0462	0.0165	0.9585
